# xmcd
#
# Track frame offsets:
#	150
#	16417
#	27910
#	42137
#	55247
#	68572
#	83867
#	96960
#	113472
#	127137
#	138765
#	151145
#	161052
#	174522
#	184895
#
# Disc length: 2678 seconds
#
# Revision: 5
# Processed by: cddbd v1.5.2PL0 Copyright (c) Steve Scherf et al.
# Submitted via: EZCDAudioConverter 1.3.4.1
#
DISCID=bc0a740f
DTITLE=Stereophonic Space Sound Unlimited - Spacesound Effect
DYEAR=1900
DGENRE=
TTITLE0=The Spacesound Effect
TTITLE1=Señor Lopez
TTITLE2=Samba Patrol
TTITLE3=Lino Ventura
TTITLE4=Section 5
TTITLE5=Haunted
TTITLE6=Blues For K
TTITLE7=The Twisting Spy
TTITLE8=Little Ghoul
TTITLE9=Riviera Drive
TTITLE10=Double Agent
TTITLE11=Wheelspin
TTITLE12=Cool Move
TTITLE13=Crimeville
TTITLE14=Waltz Underneath
EXTD=
EXTT0=
EXTT1=
EXTT2=
EXTT3=
EXTT4=
EXTT5=
EXTT6=
EXTT7=
EXTT8=
EXTT9=
EXTT10=
EXTT11=
EXTT12=
EXTT13=
EXTT14=
PLAYORDER=
